# xmcd
#
# Track frame offsets:
#	150
#	12220
#	22850
#	33263
#	45762
#	58650
#	70698
#	83233
#	94621
#	107602
#	120175
#	133678
#	144616
#	156934
#	168149
#	178479
#	189672
#	201007
#
# Disc length: 2851 seconds
#
# Revision: 0
# Processed by: cddbd v1.5.2PL0 Copyright (c) Steve Scherf et al.
# Submitted via: EZCDAudioConverter 4.0.4.2
#
DISCID=e00b2112
DTITLE=Red Foley - Tennessee Saturday Night
DYEAR=1900
DGENRE=Hillbilly
TTITLE0=Red Foley and The Cumberland Valley Boys - Tennessee Saturday Night
TTITLE1=Red Foley - Plantation Boogie
TTITLE2=Red Foley and Owen Bradley - Hot Dog Rag
TTITLE3=Red Foley - Hillbilly Fever
TTITLE4=Red Foley and The Cumberland Valley Boys - Freight Train Boogie
TTITLE5=Red Foley - Pinball Boogie
TTITLE6=Red Foley - Milkbucket Boogie
TTITLE7=Red Foley - Hoot Owl Boogie
TTITLE8=Red Foley - Hobo Boogie
TTITLE9=Red Foley - Night Train To Memphis
TTITLE10=Red Foley and Anita Kerr Singers - Shake A Hand
TTITLE11=Red Foley and Anita Kerr Singers - Hearts Of Stone
TTITLE12=Red Foley and Everly Knight - Crawdad Song
TTITLE13=Red Foley - Rockin' And Reelin'
TTITLE14=Red Foley - Crazy Little Guitar Man
TTITLE15=Red Foley - Sugar Foot Rag
TTITLE16=Red Foley - Hot Rod Race
TTITLE17=Red Foley - Kentucky Fox Chase
EXTD=
EXTT0=
EXTT1=
EXTT2=
EXTT3=
EXTT4=
EXTT5=
EXTT6=
EXTT7=
EXTT8=
EXTT9=
EXTT10=
EXTT11=
EXTT12=
EXTT13=
EXTT14=
EXTT15=
EXTT16=
EXTT17=
PLAYORDER=
